<svg fill="#303f46" style="background-color:#fff;" width="445" height="352" viewbox="0 0 445 352" xmlns="http://www.w3.org/2000/svg"><g transform="translate(0 352) scale(.1 -.1)"><path d="m1458 3245c-6-6 22-113 35-132 15-23 27-13 33 27 7 43 24 65 24 31 0-11 5-32 10-47 9-23 13-25 24-13 7 8 18 34 25 59s15 53 17 63c4 11 0 17-10 17-9 0-20-16-27-42l-12-43-11 40c-16 54-37 51-51-5l-12-45-9 44c-9 41-23 59-36 46z"/><path d="m1960 3175c0-57 3-76 13-72 8 2 12 26 12 72s-4 70-12 73c-10 3-13-16-13-73z"/><path d="m2424 3236c-10-25 1-129 14-134 8-2 12 9 12 37 0 23 5 41 10 41h18c4 1 9-15 12-35 7-48 24-49 28-2 4 46-13 70-45 64-19-3-23 0-23 19 0 26-17 33-26 10z"/><path d="m2358 3223c-9-36 6-118 23-121 13-2 15 7 13 55-1 32-2 64-3 71-2 18-28 14-33-5z"/><path d="m1644 3195c-9-21 2-31 19-17 8 7 17 9 21 5 3-4-7-12-24-19-19-9-30-20-30-34 0-22-1-21 55-25l40-3-5 51c-5 50-6 52-38 55-22 2-34-2-38-13zm46-55c0-5-7-10-15-10s-15 5-15 10c0 6 7 10 15 10s15-4 15-10z"/><path d="m1745 3183c10-40 28-76 40-76s44 61 45 86c0 28-19 19-33-15l-14-33-7 33c-5 19-14 32-23 32-12 0-14-7-8-27z"/><path d="m1856 3194c-37-37-1-103 49-90 38 10 33 37-5 30-19-4-30-2-30 5 0 6 16 11 35 11 24 0 35 5 35 14 0 20-28 46-50 46-10 0-26-7-34-16zm47-21c-7-2-19-2-25 0-7 3-2 5 12 5s19-2 13-5z"/><path d="m2017 3192c-24-27-21-59 8-78 21-14 31-15 51-5 30 13 22 33-11 25-12-3-26-1-29 5-5 7 5 11 28 11 28 0 36 4 36 18 0 41-54 57-83 24zm48-12c3-5-1-10-10-10s-13 5-10 10c3 6 8 10 10 10s7-4 10-10z"/><path d="m2120 3153c0-64 22-70 30-9 3 20 10 37 15 37 6 0 12-17 15-37 3-21 11-39 18-42 10-3 12 9 10 49l-3 54-42 1-43 1v-54z"/><path d="m2250 3195c-31-38-2-99 41-88 15 4 18 2 13-11s-14-15-38-10c-27 6-29 5-17-10 16-19 52-21 69-4 7 7 12 39 12 73v62l-34 1c-19 1-39-5-46-13zm53-51c-6-17-30-18-36-1-2 6 0 21 6 31 9 19 10 19 23 2 7-10 10-24 7-32z"/><path d="m1895 3010c-3-5-2-10 4-10 18 0 21-37 6-74-9-21-14-43-11-49 2-7 10 3 17 21 8 17 16 32 19 32s11-15 19-32c22-56 23-14 1 45s-44 85-55 67z"/><path d="m1844 2975c-17-43-13-90 12-121 15-19 16-19 9 1-15 44-17 85-6 116 16 46 4 49-15 4z"/><path d="m1997 2988c11-30 10-97-1-128-8-22-7-23 7-12 25 21 32 93 13 131-19 36-31 42-19 9z"/><path d="m1266 2853c-12-12-6-33 9-33 8 0 15 6 15 14 0 17-14 28-24 19z"/><path d="m2605 2847c-4-10-5-21-1-24 10-10 18 4 13 24-4 17-4 17-12 0z"/><path d="m1327 2784c-22-12-32-13-43-4-11 10-15 9-20-3-8-21 3-37 24-37 9 0 26-7 36-15 25-19 36-19 36 0 0 13 72 15 585 15 527 0 585-2 585-16 0-9 3-14 8-12 4 2 24 10 45 18 29 11 37 19 37 38s-3 22-13 14c-8-7-19-6-37 3-32 18-40 18-40 0 0-13-72-15-584-15-497 0-585 2-588 14s-7 12-31 0z"/><path d="m1262 2694c4-21 22-23 26-1 2 10-3 17-13 17s-15-6-13-16z"/><path d="m2600 2696c0-8 5-18 10-21 6-3 10 3 10 14 0 12-4 21-10 21-5 0-10-6-10-14z"/><path d="m1265 2630c-7-12 2-30 16-30 12 0 12 27 0 35-5 3-12 1-16-5z"/><path d="m2605 2627c-4-10-5-21-1-24 10-10 18 4 13 24-4 17-4 17-12 0z"/><path d="m1215 2574c-52-27-76-56-120-149-48-101-90-235-135-436-16-74-32-144-35-156-5-22-9-23-140-23-113 0-135-2-135-15 0-17-12-16 605-15l330 1 44-193c94-417 172-585 286-617 52-14 96 2 145 55 71 77 120 203 186 475 15 63 32 119 38 124 6 6 12 30 12 55 0 26 4 58 8 73l6 27h310 310l5-22c119-523 164-655 252-741 68-65 138-67 209-5 37 33 99 152 132 254 23 72 95 360 113 452l12 62h258c224 0 259 2 259 15s-73 15-598 15h-598l-33 153c-60 274-128 469-191 549-17 20-27 43-24 51 9 23-124 34-163 13-45-23-92-81-129-160-38-81-111-329-144-493l-23-113h-318c-294 0-318 1-323 18-3 9-21 87-40 172-38 173-95 359-134 435-66 133-152 183-237 139zm123-59c65-54 146-268 207-545 14-63 28-125 30-137l5-23h-305c-168 0-305 2-305 4 0 9 60 264 80 341 48 181 107 314 160 359 41 34 88 35 128 1zm1332 8c14-9 30-24 37-33 35-44 85-158 117-265 35-117 96-374 96-401 0-12-50-14-300-14-285 0-300 1-300 18 0 25 85 371 112 452 33 103 97 220 132 241 39 23 74 24 106 2zm-415-765c-89-395-122-512-173-613-37-75-58-101-96-119-115-55-209 118-310 570-20 88-36 166-36 172 0 9 81 12 310 12h310l-5-22zm1345 7c0-34-94-416-122-495-38-107-79-189-109-217-128-118-232 38-339 506-22 97-42 186-45 199l-5 22h310c270 0 310-2 310-15z"/><path d="m2760 2570c0-5 9-10 20-10s20 5 20 10c0 6-9 10-20 10s-20-4-20-10z"/><path d="m2830 2570c0-5 12-10 26-10s23 4 19 10c-3 6-15 10-26 10-10 0-19-4-19-10z"/><path d="m2910 2570c0-5 9-10 20-10s20 5 20 10c0 6-9 10-20 10s-20-4-20-10z"/><path d="m2980 2570c0-5 9-10 20-10s20 5 20 10c0 6-9 10-20 10s-20-4-20-10z"/><path d="m3050 2570c0-5 12-10 26-10s23 4 19 10c-3 6-15 10-26 10-10 0-19-4-19-10z"/><path d="m3125 2570c-4-6 5-10 19-10s26 5 26 10c0 6-9 10-19 10-11 0-23-4-26-10z"/><path d="m3200 2570c0-5 9-10 20-10s20 5 20 10c0 6-9 10-20 10s-20-4-20-10z"/><path d="m3270 2570c0-5 9-10 20-10s20 5 20 10c0 6-9 10-20 10s-20-4-20-10z"/><path d="m3227 2521c-21-36-22-51-2-51 13 0 15-38 15-280s-2-280-15-280c-8 0-15-2-15-5 0-11 34-75 40-75 3 0 16 18 29 40 22 40 22 40 2 40-21 0-21 4-21 280 0 273 0 280 20 280 11 0 20 2 20 4 0 10-42 76-49 76-4 0-14-13-24-29z"/><path d="m3383 2368c-6-7-19-39-29-70-18-59-13-87 10-55 17 22 55 22 72 0 25-35 26-3 3 63-25 69-38 84-56 62zm27-64c0-8-6-14-14-14-9 0-12 7-9 20 6 22 23 18 23-6z"/><path d="m3782 2371c-17-11-12-133 6-139 9-3 12 16 12 72 0 42-1 76-2 76-2 0-9-4-16-9z"/><path d="m3830 2366c0-9 7-16 16-16 17 0 14 22-4 28-7 2-12-3-12-12z"/><path d="m4130 2357c0-20-4-23-23-20-28 6-49-17-49-52 0-38 20-56 61-52l36 2v69c0 47-4 71-12 74-8 2-13-6-13-21zm-2-70c4-20-25-34-40-19s-1 44 19 40c10-2 19-11 21-21z"/><path d="m3882 2353c-5-10-6-40-3-68 5-42 10-51 29-53 22-3 30 12 12 23-14 9-12 48 3 64 10 11 10 14 0 18-7 3-13 11-13 19 0 20-17 18-28-3z"/><path d="m3480 2282c0-62 23-70 28-9 5 54 32 50 32-4 0-52 24-48 28 4 5 53 32 50 32-3 0-29 4-40 15-40 19 0 21 85 3 97-7 4-41 8-75 9h-63v-54z"/><path d="m3652 2266c2-44 7-71 16-74 7-2 12 6 12 21 0 20 4 24 20 20 29-8 50 14 50 52 0 41-15 54-63 52l-38-1 3-70zm68 19c0-18-5-25-20-25s-20 7-20 25 5 25 20 25 20-7 20-25z"/><path d="m3830 2285c0-41 3-56 13-52 7 2 12 22 12 52s-5 50-12 53c-10 3-13-12-13-53z"/><path d="m3947 2333c-10-10-8-62 3-83 7-14 21-19 50-18h40v54c0 41-4 54-15 54s-15-11-15-40c0-33-3-40-20-40s-20 7-20 40c0 38-8 49-23 33z"/><path d="m4187 2322c-47-52 13-119 69-77 20 15 15 18-28 15-16-1-28 3-28 9s16 11 35 11c39 0 46 17 19 44-21 21-47 20-67-2zm46-19c-7-2-19-2-25 0-7 3-2 5 12 5s19-2 13-5z"/><path d="m3506 2101c-22-42-20-104 4-132l20-24-10 28c-13 37-13 103 1 129 6 11 8 22 6 25-3 3-13-9-21-26z"/><path d="m3557 2123c-11-10-8-121 2-128 5-3 11 7 13 22 2 23 9 29 33 31 53 6 70 35 39 66-15 16-75 22-87 9zm78-38c0-16-7-20-30-20-24 0-31 5-33 23-3 21 0 23 30 20 25-2 33-8 33-23z"/><path d="m4095 2110c15-52 17-91 6-121-15-44-6-48 14-8 20 38 16 96-10 131l-17 23 7-25z"/><path d="m3675 2066c-31-48 18-102 64-69 23 16 28 62 9 81-20 20-56 14-73-12zm53 5c19-12 11-65-10-69-24-5-42 32-28 58 12 22 18 24 38 11z"/><path d="m3770 2079c0-28 24-89 35-89 7 0 16 15 20 33l7 32 11-33c13-42 27-37 43 19 16 53 16 49 5 49-5 0-13-15-17-32l-7-33-14 33c-17 42-29 41-40-5l-10-38-8 38c-7 34-25 53-25 26z"/><path d="m3922 2078c-37-37 12-113 57-88 12 6 21 15 21 20 0 13-13 13-27-1-13-13-43-5-43 11 0 5 16 10 35 10 27 0 35 4 35 18 0 24-19 42-45 42-12 0-26-5-33-12zm56-16c2-7-7-12-22-12-27 0-35 15-13 23 17 7 30 3 35-11z"/><path d="m4030 2037c0-29 4-46 10-42 6 3 10 20 10 37 0 18 8 37 18 44 15 12 14 13-10 12-26-2-28-5-28-51z"/><path d="m920 1720c0-11 5-20 10-20 6 0 10 9 10 20s-4 20-10 20c-5 0-10-9-10-20z"/><path d="m3758 1730c19-8 22-17 22-65 0-35 4-54 10-50 6 3 10 30 10 60 0 48 2 54 23 58 12 2-3 5-33 5-42 1-50-1-32-8z"/><path d="m3853 1733c4-3 10-3 14 0 3 4 0 7-7 7s-10-3-7-7z"/><path d="m3850 1665c0-25 5-45 10-45 6 0 10 20 10 45s-4 45-10 45c-5 0-10-20-10-45z"/><path d="m3890 1658c0-30 4-47 10-43 6 3 10 22 10 41 0 28 4 35 18 32 11-2 19-16 23-43l6-40 2 36c1 36 21 66 34 52 4-3 7-24 7-45 0-24 4-37 10-33 14 9 12 72-2 82-7 4-37 9-65 9l-53 1v-49z"/><path d="m4051 1696c-17-20-10-67 12-80 19-12 48 0 55 25 4 11 2 12-9 2-18-18-49-16-49 2 0 10 10 15 30 15 31 0 39 17 18 38-16 16-43 15-57-2zm49-16c0-5-9-10-20-10s-20 5-20 10c0 6 9 10 20 10s20-4 20-10z"/><path d="m920 1650c0-11 5-20 10-20 6 0 10 9 10 20s-4 20-10 20c-5 0-10-9-10-20z"/><path d="m2280 1581c0-12 5-21 10-21 6 0 10 6 10 14s-4 18-10 21c-5 3-10-3-10-14z"/><path d="m920 1575c0-8 5-15 10-15 6 0 10 7 10 15s-4 15-10 15c-5 0-10-7-10-15z"/><path d="m2280 1505c0-15 4-24 10-20 6 3 10 12 10 20s-4 17-10 20c-6 4-10-5-10-20z"/><path d="m920 1505c0-8 5-15 10-15 6 0 10 7 10 15s-4 15-10 15c-5 0-10-7-10-15z"/><path d="m2280 1441c0-12 5-21 10-21 6 0 10 6 10 14s-4 18-10 21c-5 3-10-3-10-14z"/><path d="m920 1435c0-8 5-15 10-15 6 0 10 7 10 15s-4 15-10 15c-5 0-10-7-10-15z"/><path d="m920 1360c0-11 5-20 10-20 6 0 10 9 10 20s-4 20-10 20c-5 0-10-9-10-20z"/><path d="m2280 1359c0-11 5-17 10-14 6 3 10 13 10 21s-4 14-10 14c-5 0-10-9-10-21z"/><path d="m2280 1295c0-15 4-24 10-20 6 3 10 12 10 20s-4 17-10 20c-6 4-10-5-10-20z"/><path d="m920 1290c0-11 5-20 10-20 6 0 10 9 10 20s-4 20-10 20c-5 0-10-9-10-20z"/><path d="m920 1225c0-8 5-15 10-15 6 0 10 7 10 15s-4 15-10 15c-5 0-10-7-10-15z"/><path d="m2280 1219c0-11 5-17 10-14 6 3 10 13 10 21s-4 14-10 14c-5 0-10-9-10-21z"/><path d="m920 1150c0-11 5-20 10-20 6 0 10 9 10 20s-4 20-10 20c-5 0-10-9-10-20z"/><path d="m2280 1149c0-11 5-17 10-14 6 3 10 13 10 21s-4 14-10 14c-5 0-10-9-10-21z"/><path d="m920 1080c0-11 5-20 10-20 6 0 10 9 10 20s-4 20-10 20c-5 0-10-9-10-20z"/><path d="m2280 1079c0-11 5-17 10-14 6 3 10 13 10 21s-4 14-10 14c-5 0-10-9-10-21z"/><path d="m920 1010c0-11 5-20 10-20 6 0 10 9 10 20s-4 20-10 20c-5 0-10-9-10-20z"/><path d="m2280 1009c0-11 5-17 10-14 6 3 10 13 10 21s-4 14-10 14c-5 0-10-9-10-21z"/><path d="m920 940c0-11 5-20 10-20 6 0 10 9 10 20s-4 20-10 20c-5 0-10-9-10-20z"/><path d="m2280 939c0-11 5-17 10-14 6 3 10 13 10 21s-4 14-10 14c-5 0-10-9-10-21z"/><path d="m963 907c-25-13-42-29-43-39 0-10 5-18 10-18 6 0 10 7 10 15 0 20 6 19 47-6l34-21 6 21 5 21h578 578l5-21 6-21 34 21c41 25 47 26 47 6 0-8 5-15 10-15 6 0 10 8 10 18s-18 26-45 40c-53 26-65 27-65 7 0-13-71-15-580-15s-580 2-580 15c0 20-16 18-67-8z"/><path d="m920 810c0-5 5-10 10-10 6 0 10 5 10 10 0 6-4 10-10 10-5 0-10-4-10-10z"/><path d="m2280 810c0-5 5-10 10-10 6 0 10 5 10 10 0 6-4 10-10 10-5 0-10-4-10-10z"/><path d="m1026 698c-36-51-5-118 53-118 54 0 87 61 60 109-21 37-90 42-113 9zm78-14c19-19 20-35 3-58-29-40-80 2-59 48 13 30 33 33 56 10z"/><path d="m1790 710c0-5 5-10 10-10 6 0 10 5 10 10 0 6-4 10-10 10-5 0-10-4-10-10z"/><path d="m1840 650c0-56 3-70 15-70s15 14 15 70-3 70-15 70-15-14-15-70z"/><path d="m1890 650c0-56 3-70 15-70s15 14 15 70-3 70-15 70-15-14-15-70z"/><path d="m2120 710c0-5 7-10 15-10s15 5 15 10c0 6-7 10-15 10s-15-4-15-10z"/><path d="m2057 693c-9-32 7-108 23-111 12-2 15 8 14 50-1 29-2 59-3 66-2 18-29 14-34-5z"/><path d="m1170 633c0-63 23-71 28-10 2 23 8 37 17 37s15-14 17-37c5-59 28-54 28 6 0 28-3 52-7 52-5 1-25 3-45 4l-38 2v-54z"/><path d="m1297 677c-23-16-20-75 4-90 19-12 69-1 69 14 0 7-10 9-24 5-14-3-28-2-31 4-4 6 6 10 24 10 37 0 43 9 28 41-15 28-45 35-70 16zm43-27c0-5-7-10-15-10s-15 5-15 10c0 6 7 10 15 10s15-4 15-10z"/><path d="m1460 670c-24-24-25-38-4-68 18-26 56-29 78-6 20 20 20 43 0 72-19 27-48 28-74 2zm56-25c4-8 0-22-7-31-11-13-14-13-27 0-17 17-9 46 13 46 9 0 18-7 21-15z"/><path d="m1576 675c-21-21-11-41 27-55 18-7 26-14 19-17s-19 0-27 7c-20 16-40 3-24-16 15-18 63-18 79 1 18 22 6 42-30 50-23 5-29 10-21 18s14 8 23-1c16-16 28-15 28 2 0 27-50 34-74 11z"/><path d="m1687 672c-20-22-22-63-5-80s54-15 74 5 2 32-21 13c-19-16-35-4-35 27 0 23 2 25 35 19 39-8 42-5 19 18-21 21-47 20-67-2z"/><path d="m1790 635c0-30 5-55 10-55 6 0 10 25 10 55s-4 55-10 55c-5 0-10-25-10-55z"/><path d="m1956 674c-23-23-20-26 17-19 21 5 29 4 22-3-5-6-19-12-30-14-14-2-20-11-20-28 0-23 4-25 45-27l45-1-4 46c-2 26-8 50-15 54-18 12-44 9-60-8zm44-59c0-8-7-15-15-15-26 0-18 20 13 29 1 1 2-6 2-14z"/><path d="m2127 683c-4-3-7-28-7-55 0-36 4-48 15-48 12 0 15 13 15 55 0 51-7 65-23 48z"/><path d="m2187 672c-34-37-11-92 38-92 24 0 55 33 55 57 0 19-37 53-58 53-11 0-26-8-35-18zm60-28c7-19-20-49-36-40-6 4-11 18-11 32 0 17 5 24 20 24 11 0 23-7 27-16z"/><path d="m2293 674c-2-7-3-29-1-50 4-51 26-56 30-7 2 27 8 39 21 41 14 3 17-4 17-37 0-30 4-41 15-41 19 0 21 85 3 97-19 12-80 10-85-3z"/><path d="m566 488c-20-29-20-100 0-139 8-17 18-29 21-26 2 3 0 14-6 25-14 26-14 117-1 143 14 26 5 24-14-3z"/><path d="m619 488c-15-24-14-118 0-118 8 0 12 17 24 113 4 33-6 35-24 5z"/><path d="m1515 500c-3-5 1-10 10-10s13 5 10 10c-3 6-8 10-10 10s-7-4-10-10z"/><path d="m2090 442c0-67 1-70 26-75 29-5 64 21 64 49 0 29-21 54-45 54-15 0-25 6-25 14s-4 18-10 21c-6 4-10-20-10-63zm60 3c17-21 4-67-18-63-18 3-28 39-18 64 7 18 20 18 36-1z"/><path d="m2536 486c-10-15-12-27-6-31 6-3 10-24 10-46 0-21 5-39 10-39 6 0 10 19 11 43 0 23 2 54 4 70 5 34-8 35-29 3z"/><path d="m670 418c0-26 5-48 10-48 6 0 10 16 10 36 0 23 6 42 18 50 15 12 14 13-10 12-26-2-28-5-28-50z"/><path d="m730 451c-16-31-12-59 11-74 21-15 55-12 65 5 10 16-5 22-21 8-16-13-45-7-45 10 0 5 16 10 35 10 27 0 35 4 35 18 0 41-60 59-80 23zm58-9c2-7-7-12-23-12-24 0-26 2-15 15 14 17 31 16 38-3z"/><path d="m842 458c-16-16-15-61 0-76 7-7 22-12 35-12 18 0 23-6 23-26 0-14 4-23 10-19 6 3 10 37 10 74v68l-33 1c-19 1-39-4-45-10zm48-12c6-8 10-25 8-38-4-32-42-32-46 0-7 46 14 66 38 38z"/><path d="m946 457c-10-22 1-84 16-89 6-2 24-2 40 0 26 4 28 7 28 53 0 60-18 65-22 7-2-35-7-43-23-43s-21 9-26 45c-4 33-7 40-13 27z"/><path d="m1063 458c-17-22-21-42-13-64 12-30 45-36 73-13 25 21 17 25-13 7-16-10-23-10-37 5-16 16-15 17 25 17 34 0 42 4 42 18 0 37-55 58-77 30zm55-15c2-8-6-13-22-13-25 0-33 10-19 24 10 10 36 3 41-11z"/><path d="m1160 420c0-27 5-50 10-50 6 0 10 18 10 40 0 28 5 43 16 47 21 8 34-13 34-54 0-18 5-33 10-33 13 0 13 56 0 81-8 13-21 19-45 19h-35v-50z"/><path d="m1270 451c-16-31-12-59 11-74 23-17 55-12 63 9 6 17-6 18-21 3-18-18-43-3-43 24 0 32 26 55 42 39 17-17 28-15 22 3-9 22-61 19-74-4z"/><path d="m1360 456c0-9 7-34 17-57 15-39 15-43-1-54-18-14-8-29 12-16 17 10 65 144 50 139-7-3-17-19-22-36-11-40-22-41-31-2-7 32-25 51-25 26z"/><path d="m1516 463c-3-3-6-26-6-50 0-32 4-43 15-43s15 12 15 44c0 43-10 63-24 49z"/><path d="m1567 464c-17-17-5-43 25-53 25-9 29-14 20-23-10-10-17-10-32 0-16 10-20 10-20-2 0-18 29-25 58-15 31 12 27 39-8 52-16 6-30 17-30 24 0 17 22 17 39 1 11-11 13-10 9 2-5 16-49 26-61 14z"/><path d="m1710 419c0-60 18-65 22-6 2 29 8 42 18 42s16-13 18-42c2-24 8-43 13-43 6 0 9 21 7 48-3 47-3 47-40 48l-38 1v-48z"/><path d="m1820 425c0-49 16-65 56-57 21 4 24 10 24 53 0 60-18 65-22 7-2-31-8-44-20-46-15-3-18 4-18 42 0 25-4 46-10 46-5 0-10-20-10-45z"/><path d="m1920 419c0-27 5-49 10-49 6 0 10 15 10 34 0 33 20 62 33 49 4-3 7-24 7-45s5-38 10-38c6 0 10 15 10 33 0 17 4 38 9 46 15 23 31 2 31-40 0-21 5-39 11-39s9 19 7 48l-3 47-67 1-68 1v-48z"/><path d="m2200 451c-16-31-12-59 11-74 21-15 55-12 65 5 10 16-5 22-21 8-16-13-45-7-45 10 0 5 16 10 35 10 36 0 42 10 29 44-9 23-61 21-74-3zm58-9c2-7-7-12-22-12-27 0-35 15-13 23 17 7 30 3 35-11z"/><path d="m2310 418c0-26 5-48 10-48 6 0 10 16 10 36 0 23 6 42 18 50 15 12 14 13-10 12-26-2-28-5-28-50z"/><path d="m2431 456c-18-21-9-67 14-81 33-21 65-2 65 38 0 18-5 38-12 45-16 16-53 15-67-2zm59-16c14-26-4-63-28-58-21 4-29 57-10 69 20 13 26 11 38-11z"/><path d="m850 280c0-5 5-10 10-10 6 0 10 5 10 10 0 6-4 10-10 10-5 0-10-4-10-10z"/><path d="m890 220c0-40 4-70 10-70s10 30 10 70-4 70-10 70-10-30-10-70z"/><path d="m940 220c0-45 4-69 10-65 6 3 10 33 10 65s-4 62-10 65c-6 4-10-20-10-65z"/><path d="m1140 280c0-5 5-10 10-10 6 0 10 5 10 10 0 6-4 10-10 10-5 0-10-4-10-10z"/><path d="m2480 269c0-17-5-20-21-16-31 8-63-28-54-61 8-33 21-42 62-40l33 1v69c0 39-4 68-10 68-5 0-10-10-10-21zm-4-55c4-17 1-31-10-42-15-15-17-15-32 0-22 22-11 68 16 68 13 0 22-9 26-26z"/><path d="m2525 273c14-36 17-93 6-124-15-42-7-49 13-10 20 38 20 84 1 121-17 32-32 41-20 13z"/><path d="m1088 263c-2-10-1-38 2-62 6-57 27-66 22-10-3 28 0 44 9 50 10 6 11 9 2 9-7 0-13 7-13 15 0 21-17 19-22-2z"/><path d="m561 243c-23-16-28-62-9-81 36-36 102 15 80 62-13 29-45 38-71 19zm47-15c16-16 15-30-2-53-12-16-16-17-30-6-16 14-22 52-9 64 10 11 28 8 41-5z"/><path d="m668 249c-27-15-21-39 12-52 17-6 30-15 30-19 0-15-21-19-36-7-17 14-33 4-17-12 19-19 68-7 71 17 2 16-4 24-27 32-17 6-31 16-31 21 0 15 37 14 43-1 2-7 8-9 13-5 5 5 1 15-10 23-23 16-25 17-48 3z"/><path d="m773 249c-18-6-23-16-23-42 0-19 7-40 14-47 22-17 60-8 65 15 3 20 3 20-17 2-26-24-42-14-42 24 0 30 30 54 38 31 4-14 22-16 22-2 0 17-34 28-57 19z"/><path d="m994 246c-11-8-15-18-10-23 5-4 11-2 13 5 7 17 43 15 43-3 0-9-9-15-24-15-28 0-51-24-43-45 4-10 20-14 49-13h43l-3 42c-2 22-11 47-20 54-20 15-24 15-48-2zm46-60c0-16-27-29-41-20-15 9-10 22 9 27 29 8 32 7 32-7z"/><path d="m1202 244c-38-27-22-94 23-94 34 0 59 39 46 72-5 14-17 28-26 32-21 8-17 9-43-10zm46-16c16-16 15-30-2-53-12-16-16-17-30-6-16 14-22 52-9 64 10 11 28 8 41-5z"/><path d="m1313 253c-20-4-23-11-23-54 0-60 18-65 22-6 2 34 7 42 23 42s21-8 23-42c4-54 22-57 22-4 0 36-21 73-38 70-4-1-17-4-29-6z"/><path d="m1418 249c-27-15-21-39 12-52 17-6 30-15 30-19 0-15-21-19-36-7-17 14-33 4-17-12 19-19 68-7 71 17 2 16-4 24-27 32-17 6-31 16-31 21 0 15 23 14 38-1 6-6 15-8 19-4 5 4-1 14-11 22-23 16-25 17-48 3z"/><path d="m1573 252c-21-3-23-9-23-73 0-39 4-69 10-69s10 9 10 20c0 14 7 20 23 20 30 0 47 18 47 50 0 42-22 60-67 52zm45-46c5-38-13-55-34-34-11 11-14 25-10 43 9 36 40 30 44-9z"/><path d="m1690 252c-8-3-18-10-22-16-12-17-9-61 4-74 17-17 53-15 69 5 12 15 12 16-6 9-31-13-47-12-52 2-3 8 7 12 31 12 28 0 36 4 36 18 0 33-29 54-60 44zm38-29c2-8-6-13-22-13-25 0-33 10-19 24 10 10 36 3 41-11z"/><path d="m1793 252c-20-3-23-9-23-53 0-27 5-49 10-49 6 0 10 14 10 32 0 17 7 40 17 50 19 21 16 25-14 20z"/><path d="m1908 249c-29-16-22-46 12-54 17-4 30-10 30-15 0-16-19-21-40-10-14 7-20 8-20 0 0-16 26-23 56-16 33 9 28 36-9 54-28 14-36 32-14 32 7 0 18-5 25-12 9-9 12-8 12 4 0 9-7 19-16 22-19 7-15 8-36-5z"/><path d="m2e3 240c-22-22-25-42-10-71 12-21 64-27 75-8 11 17-3 23-20 9-12-10-18-10-32 1-14 13-12 15 22 19 46 6 54 21 26 49-26 26-36 26-61 1zm54-15c4-11-2-15-24-15s-28 4-24 15c4 8 14 15 24 15s20-7 24-15z"/><path d="m2111 243c-23-16-28-62-9-81 7-7 22-12 34-12 24 0 50 25 36 34-6 3-15-1-22-9-17-21-40-7-40 26 0 32 24 49 43 30 15-15 27-14 21 3-8 21-40 26-63 9z"/><path d="m2211 243c-23-16-28-62-9-81 36-36 98 11 79 60-12 31-43 41-70 21zm49-22c13-25 13-27-5-45-22-21-45-9-45 23 0 45 30 58 50 22z"/><path d="m2323 253c-20-4-23-11-23-54 0-60 18-65 22-6 2 34 7 42 23 42s21-8 23-43c4-49 22-47 22 3 0 31-22 67-38 64-4-1-17-4-29-6z"/><path d="m850 200c0-27 5-50 10-50 6 0 10 23 10 50 0 28-4 50-10 50-5 0-10-22-10-50z"/><path d="m1140 200c0-27 5-50 10-50 6 0 10 23 10 50 0 28-4 50-10 50-5 0-10-22-10-50z"/></g></svg>